<?xml version="1.0" encoding="UTF-8" standalone="no"?>
<svg
   width="65"
   height="65"
   viewBox="0 0 65 65"
   fill="none"
   version="1.1"
   id="svg1"
   sodipodi:docname="css.svg"
   inkscape:version="1.3.2 (091e20e, 2023-11-25, custom)"
   xmlns:inkscape="http://www.inkscape.org/namespaces/inkscape"
   xmlns:sodipodi="http://sodipodi.sourceforge.net/DTD/sodipodi-0.dtd"
   xmlns="http://www.w3.org/2000/svg"
   xmlns:svg="http://www.w3.org/2000/svg">
  <defs
     id="defs1" />
  <sodipodi:namedview
     id="namedview1"
     pagecolor="#ffffff"
     bordercolor="#000000"
     borderopacity="0.25"
     inkscape:showpageshadow="2"
     inkscape:pageopacity="0.0"
     inkscape:pagecheckerboard="0"
     inkscape:deskcolor="#d1d1d1"
     inkscape:zoom="7.6615385"
     inkscape:cx="32.5"
     inkscape:cy="32.434739"
     inkscape:window-width="1366"
     inkscape:window-height="697"
     inkscape:window-x="-8"
     inkscape:window-y="-8"
     inkscape:window-maximized="1"
     inkscape:current-layer="svg1" />
  <path
     d="M55.8757 58.128L61 1H4L4.06697 1.74133L9.11631 58.136L9.15917 58.6053L32.2844 65H32.6487L55.8274 58.6L55.8703 58.1307L55.8757 58.128ZM32.5496 13.4773H49.1119L48.6137 19.2373L32.2737 26.4693L32.5469 27.7707H47.8797L46.1145 47.9067L32.4906 51.6667L18.8721 47.912L18.0149 38.2693H23.6215L24.0715 43.1573L24.1143 43.632L32.3781 45.8187H32.7344L40.9071 43.5573L40.9473 43.0853L41.7187 34.056L41.7803 33.32H17.5462L17.0372 27.5253L33.9371 20.3227L33.6693 19.016H16.3113L15.8157 13.4693H32.5308L32.5496 13.4773Z"
     fill="#8257E6"
     id="path1"
     style="fill:#ffffff" />
</svg>
